<?xml version="1.0" encoding="iso-8859-1"?>
<!-- Uploaded to: SVG Repo, www.svgrepo.com, Generator: SVG Repo Mixer Tools -->
<!DOCTYPE svg PUBLIC "-//W3C//DTD SVG 1.1//EN" "http://www.w3.org/Graphics/SVG/1.1/DTD/svg11.dtd">
<svg fill="#000000" height="800px" width="800px" version="1.1" id="Capa_1" xmlns="http://www.w3.org/2000/svg" xmlns:xlink="http://www.w3.org/1999/xlink" 
	 viewBox="0 0 297 297" xml:space="preserve">
<g>
	<path d="M241.596,276.979h-84.633c-9.572,0-17.84-5.673-21.631-13.832h4.705c5.528,0,10.01-4.482,10.01-10.01v-23.843h9.987
		c22.493,0,40.792-18.299,40.792-40.792V33.092c0-5.528-4.482-10.01-10.01-10.01h-39.749C148.538,9.951,136.968,0,123.111,0
		S97.683,9.951,95.154,23.081h-39.75c-5.528,0-10.01,4.482-10.01,10.01v155.41c0,22.493,18.299,40.792,40.792,40.792h9.988v23.843
		c0,5.528,4.482,10.01,10.01,10.01h8.082C118.809,282.524,136.221,297,156.963,297h84.633c5.528,0,10.01-4.482,10.01-10.01
		S247.124,276.979,241.596,276.979z M123.111,20.021c2.613,0,4.952,1.192,6.504,3.061h-13.009
		C118.158,21.213,120.497,20.021,123.111,20.021z M180.806,43.102v47.685H65.414V43.102H180.806z M65.414,188.502v-77.694h115.392
		v77.694c0,11.453-9.318,20.771-20.771,20.771H86.186C74.732,209.274,65.414,199.955,65.414,188.502z M130.027,229.294v13.833
		h-13.833v-13.833H130.027z"/>
	<path d="M150.048,168.504c0-11.255-13.078-31.403-18.701-39.543c-1.869-2.706-4.947-4.321-8.236-4.321s-6.367,1.615-8.236,4.321
		c-5.623,8.14-18.701,28.288-18.701,39.543c0,14.853,12.084,26.937,26.937,26.937S150.048,183.357,150.048,168.504z
		 M116.194,168.561c0.195-2.351,2.98-8.296,6.92-15.158c3.953,6.878,6.741,12.822,6.912,15.102c0,3.814-3.103,6.916-6.916,6.916
		C119.316,175.42,116.225,172.349,116.194,168.561z"/>
</g>
</svg>