<?xml version="1.0" ?><svg viewBox="0 0 512 512" xmlns="http://www.w3.org/2000/svg"><defs><style>.cls-1{fill:#f0a5a5;}.cls-2{fill:#cc8c8c;}.cls-3{fill:#7db6d6;}.cls-4{fill:#5ca4cc;}.cls-5{fill:#cbe2ef;}.cls-6{fill:#adc0cb;}.cls-7{fill:#d27676;}.cls-8{fill:#f9b7b7;}.cls-9{fill:#ea8383;}.cls-10{fill:#6e6e6e;}.cls-11{fill:#9bb1ba;}.cls-12{fill:#d49c9c;}.cls-13{fill:#c76f6f;}.cls-14{fill:#575757;}.cls-15{fill:#5e5e5e;}.cls-16{fill:#b6d0db;}.cls-17{fill:#a2c1cc;}.cls-18{fill:#4a4a4a;}</style></defs><g data-name="/ FILLED_OUTLINE" id="_FILLED_OUTLINE"><rect class="cls-1" height="96" width="112" x="200" y="264"/><path class="cls-2" d="M208,360H312V264h-.30322A104.00809,104.00809,0,0,1,208,360Z"/><path class="cls-3" d="M467.501,408.87891a80.00023,80.00023,0,0,0-60.51905-59.77173L312,328l-3.93677,3.37427a79.99944,79.99944,0,0,1-104.12646,0L200,328l-94.98193,21.10718a80.00023,80.00023,0,0,0-60.519,59.77173L24,496H488Z"/><path class="cls-4" d="M406.98193,349.10718A80.00022,80.00022,0,0,1,467.501,408.87891L488,496H328l23.87109-159.13965Z"/><path class="cls-5" d="M408,400l-33.16357-58.03638,32.1455,7.14356A80.00022,80.00022,0,0,1,467.501,408.87891L488,496H360l16-80Z"/><path class="cls-6" d="M466.35791,404.60742A175.95149,175.95149,0,0,1,312.00024,496H488l-20.499-87.12109C467.16187,407.4375,466.77271,406.0166,466.35791,404.60742Z"/><path class="cls-1" d="M363.37793,152A28.622,28.622,0,0,1,392,180.62207h0a28.622,28.622,0,0,1-17.99194,26.57471L312,232V152Z"/><path class="cls-1" d="M148.62207,152A28.622,28.622,0,0,0,120,180.62207h0a28.622,28.622,0,0,0,17.99194,26.57471L200,232V152Z"/><path class="cls-7" d="M345.20239,41.20215h-.00024A58.7315,58.7315,0,0,0,303.67236,24H208.32764a58.7315,58.7315,0,0,0-41.52979,17.20215h-.00024a58.73255,58.73255,0,0,0-15.80347,54.271L160,136H352l9.00586-40.52686A58.73255,58.73255,0,0,0,345.20239,41.20215Z"/><path class="cls-8" d="M226.65609,290.42409l-15.90752-6.2492A80,80,0,0,1,160,209.71447V134.03135a16,16,0,0,1,3.70846-10.243l0-.00005a121.03361,121.03361,0,0,1,92.98061-43.5498H320a32,32,0,0,1,32,32v97.36328a80,80,0,0,1-50.58848,74.39733L285.319,290.361A80,80,0,0,1,226.65609,290.42409Z"/><path class="cls-9" d="M264,232H252.12891a17.9677,17.9677,0,0,1-16.07129-26.00391l12.78711-25.57421,14.31054,7.15624-12.78711,25.57422A1.96883,1.96883,0,0,0,252.12891,216H264Z"/><rect class="cls-3" height="16" width="192" x="160" y="144"/><path class="cls-9" d="M256,272a33.7,33.7,0,0,1-30.31055-18.7334l-.84472-1.68848,14.31054-7.15624L240,246.11133a17.88883,17.88883,0,0,0,32,.001l.84473-1.69042,14.31054,7.15624-.84472,1.68946A33.70086,33.70086,0,0,1,256,272Z"/><circle class="cls-5" cx="216" cy="152" r="24"/><circle class="cls-5" cx="296" cy="152" r="24"/><path class="cls-4" d="M105.01807,349.10718a80.00023,80.00023,0,0,0-60.519,59.77173L24,496H184L160.12891,336.86035Z"/><path class="cls-5" d="M104,400l33.16357-58.03638-32.1455,7.14356a80.00023,80.00023,0,0,0-60.519,59.77173L24,496H152l-16-80Z"/><path class="cls-10" d="M264,440V427.77588L310.62988,389.375A244.51353,244.51353,0,0,0,400,200a24.0275,24.0275,0,0,0-24-24H352v16h24a8.00917,8.00917,0,0,1,8,8,228.56536,228.56536,0,0,1-83.542,177.02344L256,413.63574l-44.458-36.6123A228.56536,228.56536,0,0,1,128,200a8.00917,8.00917,0,0,1,8-8h24V176H136a24.0275,24.0275,0,0,0-24,24,244.51353,244.51353,0,0,0,89.37012,189.375L248,427.77588V440a56.0629,56.0629,0,0,0,56,56h48V480H304A40.04584,40.04584,0,0,1,264,440Z"/><path class="cls-11" d="M352,491.40918V496H456V421.167A176.12741,176.12741,0,0,1,352,491.40918Z"/><path class="cls-12" d="M213.13159,285.11108l13.52442,5.313a79.99916,79.99916,0,0,0,58.66308-.06323l16.09253-6.36182A79.99965,79.99965,0,0,0,352,209.60181V155.26758A224.60757,224.60757,0,0,1,213.13159,285.11108Z"/><path class="cls-13" d="M256,272a33.70086,33.70086,0,0,0,30.31055-18.73242l.84472-1.68946-5.5896-2.79516A224.2048,224.2048,0,0,1,247.21143,270.843,34.18792,34.18792,0,0,0,256,272Z"/><path class="cls-8" d="M473.57617,277.57617h0a14.41453,14.41453,0,0,0-17.61426,1.26929l5.61426-8.42163a14.422,14.422,0,0,0-4-20h0a14.42541,14.42541,0,0,0-17.13916.84277,14.40149,14.40149,0,0,0-19.63916-19.74682,14.40953,14.40953,0,0,0-6.374-13.09595h0a14.422,14.422,0,0,0-20,4L368,262.10962V256a16,16,0,0,0-32,0v26.74512a32.0001,32.0001,0,0,0,9.37256,22.62744l5.25488,5.25488A31.99925,31.99925,0,0,1,360,333.25488V368h88V327.90454a14.41117,14.41117,0,0,0,13.57617-6.32837l16-24A14.42205,14.42205,0,0,0,473.57617,277.57617Z"/><rect class="cls-1" height="15.99963" rx="7.99981" transform="translate(-24.66618 449.91082) rotate(-56.30993)" width="28.84441" x="393.57779" y="240.00018"/><rect class="cls-1" height="15.99963" rx="7.99981" transform="translate(-30.38786 476.06741) rotate(-56.30993)" width="28.84441" x="415.15397" y="258.42401"/><rect class="cls-1" height="15.99963" rx="7.99981" transform="translate(-45.85518 501.47114) rotate(-56.30993)" width="28.84441" x="431.15397" y="285.57635"/><path class="cls-14" d="M356.28116,240.00023A32.00391,32.00391,0,1,1,384,256a31.85281,31.85281,0,0,1-27.71884-15.99977"/><path class="cls-15" d="M312.00024,496H352v-4.59082A176.42327,176.42327,0,0,1,312.00024,496Z"/><rect class="cls-16" height="128" width="104" x="352" y="368"/><rect class="cls-17" height="48" width="104" x="352" y="368"/><path class="cls-11" d="M352,491.40918V496H456V421.167A176.12741,176.12741,0,0,1,352,491.40918Z"/><path class="cls-18" d="M397.14624,194.82666a31.98773,31.98773,0,0,0-42.31665,42.30957A64.14063,64.14063,0,0,1,397.14624,194.82666Z"/><path class="cls-12" d="M461.57617,321.57617l16-24A14.424,14.424,0,0,0,470.33154,275.96,144.19394,144.19394,0,0,1,360,365.9978V368h88V327.90454A14.41117,14.41117,0,0,0,461.57617,321.57617Z"/><path d="M252.12891,232H264V216H252.12891a1.96883,1.96883,0,0,1-1.76075-2.84766l12.78711-25.57422-14.31054-7.15624-12.78711,25.57421A17.9677,17.9677,0,0,0,252.12891,232Z"/><path d="M256,272a33.70086,33.70086,0,0,0,30.31055-18.73242l.84472-1.68946-14.31054-7.15624L272,246.1123a17.88883,17.88883,0,0,1-32-.001l-.84473-1.68945-14.31054,7.15624.84472,1.68848A33.7,33.7,0,0,0,256,272Z"/><path d="M495.78711,494.168l-20.499-87.12012c-.53516-2.27832-2.3877-6.28613-7.68262-17.17285-1.2876-2.64795-2.81592-5.7915-3.60547-7.5083V360h-8V335.05444a22.24658,22.24658,0,0,0,12.23242-9.04077l16-24a22.38548,22.38548,0,0,0-12.94067-34.10449,22.37788,22.37788,0,0,0-21.24341-27.89258c-.0249-.13794-.03442-.27637-.062-.41406a22.39609,22.39609,0,0,0-26.03809-17.64063,40.07668,40.07668,0,0,0-24.53174-34.86816A36.5856,36.5856,0,0,0,363.37793,144H360v-7.12158L368.81543,97.208A66.73117,66.73117,0,0,0,303.67188,16H208.32812a66.73117,66.73117,0,0,0-65.14355,81.208L152,136.87842V144h-3.37793a36.67531,36.67531,0,0,0-35.02051,47.395A23.87045,23.87045,0,0,0,112,200a244.63181,244.63181,0,0,0,37.81592,130.957l-46.53369,10.34082a88.48653,88.48653,0,0,0-66.57032,65.749L16.21289,494.168,31.78711,497.832l20.499-87.12109a72.39847,72.39847,0,0,1,54.4668-53.79395l14.49219-3.2207L92.8584,403.37305l36.06445,18.03222,15.23242,76.16407,15.68946-3.13868-16.76758-83.83593L115.1416,396.627l27.2124-47.62158,11.13648-2.47485,22.59839,150.656,15.82226-2.373L171.76733,360.522a247.06209,247.06209,0,0,0,29.60279,28.853L248,427.77588V440a56.0629,56.0629,0,0,0,56,56h56V424h88v72h16V428.927l16.21289,68.905ZM368,360V333.25488a39.74237,39.74237,0,0,0-11.71582-28.28515l-5.25391-5.25391A23.84267,23.84267,0,0,1,344,282.74512V256a8.00917,8.00917,0,0,1,8-8v-.02368a40.03653,40.03653,0,0,0,8,7.98974V288h16V263.18115A39.70175,39.70175,0,0,0,384,264a40.122,40.122,0,0,0,6.01709-.45337,22.42268,22.42268,0,0,0,21.51172,26.86646c.02441.136.03393.27246.061.4082a22.35279,22.35279,0,0,0,16.271,17.27051,22.44085,22.44085,0,0,0,9.27783,24.14062A22.73214,22.73214,0,0,0,440,333.854V360ZM140.96289,199.76953a20.59379,20.59379,0,0,1-8.8396-6.76221A7.94909,7.94909,0,0,1,136,192h16v12.18408ZM168,160h17.0127a32.00443,32.00443,0,0,0,61.9746,0h18.0254a32.00443,32.00443,0,0,0,61.9746,0H344v64a40.06681,40.06681,0,0,0,1.05249,9.0293,24.045,24.045,0,0,0-17.02539,21.90551,71.926,71.926,0,0,1-29.70093,21.79371l-16.001,6.28515a71.77159,71.77159,0,0,1-52.65137,0l-16-6.28515A71.58707,71.58707,0,0,1,168,209.71484Zm176-16H326.9873a32.00443,32.00443,0,0,0-61.9746,0H246.9873a32.00443,32.00443,0,0,0-61.9746,0H168v-9.96875a8.02168,8.02168,0,0,1,1.85449-5.12207,112.73242,112.73242,0,0,1,86.835-40.6709H320a24.0275,24.0275,0,0,1,24,24Zm-32,8a16,16,0,1,1-16-16A16.01833,16.01833,0,0,1,312,152Zm-80,0a16,16,0,1,1-16-16A16.01833,16.01833,0,0,1,232,152ZM208,291.69019l15.82324,6.21606a87.72088,87.72088,0,0,0,64.35254,0L304,291.69019v32.63037l-1.14258.97924a71.99972,71.99972,0,0,1-93.71484,0L208,324.32056Zm112-8.22413a87.86062,87.86062,0,0,0,8-5.87329v5.15235a39.74237,39.74237,0,0,0,11.71582,28.28515l5.25391,5.25391a23.83169,23.83169,0,0,1,6.57934,12.30957L320,321.583Zm150.91992,9.67261-16,24a6.42239,6.42239,0,1,1-10.6875-7.125l5.08789-7.63208a22.39586,22.39586,0,0,0,2.91211-3.52026l9.73071-14.59619a6.42294,6.42294,0,0,1,8.95679,8.87353ZM455.874,261.16406a6.38577,6.38577,0,0,1-.9541,4.82227l-5.07544,7.61328a22.628,22.628,0,0,0-2.92456,3.53906l-9.7229,14.58447a6.41719,6.41719,0,0,1-9.60693-7.61767,22.60271,22.60271,0,0,0,3.06616-3.668l15.71826-23.57715a6.42772,6.42772,0,0,1,1.9419-.73437,6.54362,6.54362,0,0,1,1.27246-.126,6.4265,6.4265,0,0,1,6.28515,5.16406Zm-27.86035-23.58789a6.41973,6.41973,0,0,1,5.97266,8.74146,22.58624,22.58624,0,0,0-3.06641,3.6687L415.20215,273.563a6.42054,6.42054,0,0,1-8.5459-9.12549l16-24a6.37948,6.37948,0,0,1,4.084-2.73438A6.488,6.488,0,0,1,428.01367,237.57617ZM408,224a24,24,0,1,1-24-24A24.0275,24.0275,0,0,1,408,224Zm-44.62207-64A20.4949,20.4949,0,0,1,383.697,184.00781,39.78666,39.78666,0,0,0,360,192.022V160ZM172.45508,46.85938A50.39907,50.39907,0,0,1,208.32812,32h95.34376a50.72481,50.72481,0,0,1,50.07885,58.81128A39.996,39.996,0,0,0,320,72.23828H256.68945a128.64421,128.64421,0,0,0-93.70068,40.33154L158.80371,93.7373A50.49356,50.49356,0,0,1,172.45508,46.85938ZM148.62207,160H152v16H136a23.89034,23.89034,0,0,0-7.70337,1.27563A20.63711,20.63711,0,0,1,148.62207,160Zm-20.34082,51.06885a37.00769,37.00769,0,0,0,6.74023,3.55615l17.81128,7.12427A87.9626,87.9626,0,0,0,192,283.46851V321.583l-25.50781,5.66845A228.399,228.399,0,0,1,128.28125,211.06885Zm48.43286,130.30078,21.11694-4.69287.89942.77148a87.99929,87.99929,0,0,0,114.53906,0l.89942-.77148,21.04687,4.67749A229.32993,229.32993,0,0,1,300.458,377.02344L256,413.63574l-44.458-36.6123A230.4871,230.4871,0,0,1,176.71411,341.36963ZM304,480a40.04584,40.04584,0,0,1-40-40V427.77588L310.62988,389.375A245.33781,245.33781,0,0,0,352,345.75244V360h-8V480Zm56-72V376h88v32Z"/></g></svg>