<svg width="49" height="37" viewBox="0 0 49 37" fill="none" xmlns="http://www.w3.org/2000/svg">
<path d="M33.4091 0C33.9998 0 34.5663 0.243638 34.984 0.677316C35.4017 1.11099 35.6364 1.69919 35.6364 2.3125V12.025L47.2471 3.58438C47.4141 3.46287 47.61 3.39128 47.8134 3.37741C48.0169 3.36354 48.2201 3.40793 48.4009 3.50574C48.5817 3.60354 48.7332 3.75101 48.8388 3.93207C48.9445 4.11312 49.0002 4.32081 49 4.5325V32.4675C49.0002 32.6792 48.9445 32.8869 48.8388 33.0679C48.7332 33.249 48.5817 33.3965 48.4009 33.4943C48.2201 33.5921 48.0169 33.6365 47.8134 33.6226C47.61 33.6087 47.4141 33.5371 47.2471 33.4156L35.6364 24.975V34.6875C35.6364 35.3008 35.4017 35.889 34.984 36.3227C34.5663 36.7564 33.9998 37 33.4091 37H2.22727C1.63656 37 1.07005 36.7564 0.652353 36.3227C0.234658 35.889 0 35.3008 0 34.6875V2.3125C0 1.69919 0.234658 1.11099 0.652353 0.677316C1.07005 0.243638 1.63656 0 2.22727 0H33.4091ZM14.2545 11.1671C14.0492 11.167 13.8501 11.2407 13.691 11.3755C13.5319 11.5103 13.4225 11.6981 13.3815 11.9071L13.3636 12.0897V24.9056C13.3636 25.0554 13.3986 25.203 13.4657 25.3356C13.5327 25.4683 13.6298 25.582 13.7486 25.6671C13.8673 25.7522 14.0042 25.806 14.1474 25.824C14.2906 25.842 14.4359 25.8237 14.5708 25.7705L14.7334 25.6873L24.4332 19.2793C24.5467 19.2042 24.6424 19.1033 24.713 18.9843C24.7837 18.8652 24.8274 18.7311 24.8409 18.592C24.8544 18.4529 24.8373 18.3124 24.791 18.1811C24.7447 18.0498 24.6703 17.9311 24.5735 17.834L24.4332 17.7184L14.7334 11.3081C14.5897 11.2156 14.4236 11.1652 14.2545 11.1671Z" fill="#40A2E3"/>
</svg>
