<svg width="48" height="51" viewBox="0 0 48 51" fill="none" xmlns="http://www.w3.org/2000/svg">
<path d="M10.6667 0V5.33333H5.33333V16C5.33333 18.829 6.45714 21.5421 8.45753 23.5425C10.4579 25.5429 13.171 26.6667 16 26.6667C18.829 26.6667 21.5421 25.5429 23.5425 23.5425C25.5429 21.5421 26.6667 18.829 26.6667 16V5.33333H21.3333V0H29.3333C30.0406 0 30.7189 0.280951 31.219 0.781048C31.719 1.28115 32 1.95942 32 2.66667V16C32.0006 19.7815 30.6618 23.4411 28.221 26.3295C25.7802 29.2179 22.3953 31.1484 18.6667 31.7787V36C18.6646 38.1859 19.4298 40.3031 20.8288 41.9826C22.2279 43.6621 24.172 44.7973 26.3223 45.1902C28.4726 45.5832 30.6925 45.2089 32.5951 44.1327C34.4977 43.0565 35.9622 41.3467 36.7333 39.3013C35.0176 38.5316 33.6279 37.1822 32.8081 35.4898C31.9883 33.7975 31.7909 31.8705 32.2505 30.0471C32.71 28.2237 33.7972 26.6204 35.3211 25.5188C36.8451 24.4172 38.7084 23.8876 40.5839 24.023C42.4595 24.1584 44.2274 24.9501 45.5773 26.2592C46.9272 27.5684 47.7728 29.3111 47.9657 31.1817C48.1586 33.0522 47.6864 34.9308 46.632 36.4879C45.5776 38.0449 44.0085 39.1807 42.2 39.696C41.2999 43.1481 39.1728 46.1541 36.2168 48.1514C33.2607 50.1486 29.6782 51.0005 26.1395 50.5474C22.6008 50.0944 19.3484 48.3675 16.9909 45.69C14.6333 43.0124 13.3321 39.5676 13.3307 36V31.7787C9.6025 31.1478 6.21821 29.2171 3.77799 26.3287C1.33777 23.4404 -0.000686217 19.7812 2.63936e-07 16V2.66667C2.63936e-07 1.95942 0.280952 1.28115 0.781049 0.781048C1.28115 0.280951 1.95942 0 2.66667 0H10.6667Z" fill="#40A2E3"/>
</svg>
