<svg width="51" height="51" viewBox="0 0 51 51" fill="none" xmlns="http://www.w3.org/2000/svg">
<path d="M46.0799 4.68725C49.0802 7.6878 50.7658 11.7573 50.7658 16.0006C50.7658 20.2439 49.0802 24.3134 46.0799 27.3139L40.4212 32.9673L27.2212 46.1699C24.2124 49.1301 20.1557 50.7815 15.9349 50.7643C11.714 50.7471 7.67091 49.0628 4.68629 46.0782C1.70167 43.0935 0.0173198 39.0505 0.000132824 34.8296C-0.0170541 30.6087 1.63432 26.5521 4.59453 23.5433L23.4505 4.68725C24.9363 3.20123 26.7003 2.02243 28.6416 1.21819C30.583 0.413942 32.6638 0 34.7652 0C36.8666 0 38.9474 0.413942 40.8888 1.21819C42.8301 2.02243 44.5941 3.20123 46.0799 4.68725ZM32.8799 32.9699L17.7945 17.8873L8.3652 27.3139C6.36476 29.3144 5.24092 32.0275 5.24092 34.8566C5.24092 37.6856 6.36476 40.3988 8.3652 42.3993C10.3656 44.3997 13.0788 45.5235 15.9079 45.5235C18.7369 45.5235 21.4501 44.3997 23.4505 42.3993L32.8799 32.9699Z" fill="#40A2E3"/>
</svg>
