<svg width="59" height="54" viewBox="0 0 59 54" fill="none" xmlns="http://www.w3.org/2000/svg">
<path d="M53.3333 48H58.6667V53.3333H0V48H5.33333V2.66667C5.33333 1.95942 5.61428 1.28115 6.11438 0.781048C6.61448 0.280951 7.29276 0 8 0H50.6667C51.3739 0 52.0522 0.280951 52.5523 0.781048C53.0524 1.28115 53.3333 1.95942 53.3333 2.66667V48ZM26.6667 16H21.3333V21.3333H26.6667V26.6667H32V21.3333H37.3333V16H32V10.6667H26.6667V16ZM34.6667 48H40V32H18.6667V48H24V37.3333H34.6667V48Z" fill="#40A2E3"/>
</svg>
