<svg width="183" height="138" viewBox="0 0 183 138" fill="none" xmlns="http://www.w3.org/2000/svg">
<path d="M27.45 59.1429C37.5436 59.1429 45.75 50.3022 45.75 39.4286C45.75 28.5549 37.5436 19.7143 27.45 19.7143C17.3564 19.7143 9.15 28.5549 9.15 39.4286C9.15 50.3022 17.3564 59.1429 27.45 59.1429ZM155.55 59.1429C165.644 59.1429 173.85 50.3022 173.85 39.4286C173.85 28.5549 165.644 19.7143 155.55 19.7143C145.456 19.7143 137.25 28.5549 137.25 39.4286C137.25 50.3022 145.456 59.1429 155.55 59.1429ZM164.7 69H146.4C141.367 69 136.821 71.1871 133.504 74.7295C145.027 81.5371 153.205 93.8277 154.978 108.429H173.85C178.911 108.429 183 104.024 183 98.5714V88.7143C183 77.8406 174.794 69 164.7 69ZM91.5 69C109.2 69 123.525 53.5674 123.525 34.5C123.525 15.4326 109.2 0 91.5 0C73.8005 0 59.475 15.4326 59.475 34.5C59.475 53.5674 73.8005 69 91.5 69ZM113.46 78.8571H111.087C105.139 81.9375 98.5341 83.7857 91.5 83.7857C84.4659 83.7857 77.8894 81.9375 71.9133 78.8571H69.54C51.3544 78.8571 36.6 94.7518 36.6 114.343V123.214C36.6 131.377 42.7477 138 50.325 138H132.675C140.252 138 146.4 131.377 146.4 123.214V114.343C146.4 94.7518 131.646 78.8571 113.46 78.8571ZM49.4958 74.7295C46.1789 71.1871 41.6325 69 36.6 69H18.3C8.20641 69 0 77.8406 0 88.7143V98.5714C0 104.024 4.08891 108.429 9.15 108.429H27.9933C29.7947 93.8277 37.9725 81.5371 49.4958 74.7295Z" fill="#40A2E3"/>
</svg>
